# xmcd CD database file
#
# Track frame offsets:
#	182
#	13142
#	23955
#	35287
#	47795
#	59055
#	75422
#	86432
#	96670
#	110262
#	125047
#	138277
#	152282
#	164900
#	174847
#	183062
#	192917
#	202067
#	211655
#	221630
#	231602
#	242220
#	253470
#	265122
#	276670
#
# Disc length: 3864 seconds
#
# Revision: 3
# Processed by: cddbd v1.5.2PL0 Copyright (c) Steve Scherf et al.
# Submitted via: CDex 1.51
#
DISCID=750f1619
DTITLE=Various Artist - Top Country - Country Stars
DYEAR=1996
DGENRE=Country
TTITLE0=Swingin' Doors - Merle Haggard
TTITLE1=Riverboat - Faron Young
TTITLE2=Just One Time - Don Gibson
TTITLE3=Behind Closed Doors - Charlie Rich
TTITLE4=Nobody But A Fool Would Love You - Connie Smith
TTITLE5=Cool Water - Moe Bandy
TTITLE6=Eat, Drink And Be Merry - Porter Wagoner
TTITLE7=If Teardrops Where Silver - Jean Shephard
TTITLE8=BJ The DJ - Stonewall Jackson
TTITLE9=A Good Year For The Roses - Johnny Paycheck
TTITLE10=Room Full Of Roses - Ferlin Husky
TTITLE11=Don't Touch Me  - Jeanne Seely
TTITLE12=Fingerprints - Patsy Cline
TTITLE13=Make The World Go Away - Ray Price
TTITLE14=In The Summertime (You Don't Want My Love) - Roger Miller
TTITLE15=Geisha Girl - Hank Locklin
TTITLE16=I'll Repossess My Heart - Kitty Wells
TTITLE17=The Company You Keep - Bill Phillips
TTITLE18=It Takes Alot Of Money - Warner Mack
TTITLE19=Southern Loving - Jim Ed Brown
TTITLE20=DJ For A Day - Jimmy C Newman
TTITLE21=No Help Wanted - Bill Charlisle
TTITLE22=Down Yonder - Del Wood
TTITLE23=Loose Talk - Carl Smith
TTITLE24=Top Of The World - Lynn Anderson
EXTD=YEAR: 1996
EXTT0=
EXTT1=
EXTT2=
EXTT3=
EXTT4=
EXTT5=
EXTT6=
EXTT7=
EXTT8=
EXTT9=
EXTT10=
EXTT11=
EXTT12=
EXTT13=
EXTT14=
EXTT15=
EXTT16=
EXTT17=
EXTT18=
EXTT19=
EXTT20=
EXTT21=
EXTT22=
EXTT23=
EXTT24=
PLAYORDER=
